<svg width="100" height="99" viewBox="0 0 100 99" fill="none" xmlns="http://www.w3.org/2000/svg">
<g id="Group 5">
<g id="Ellipse 1" filter="url(#filter0_d_1310_80)">
<circle cx="50.3039" cy="44.404" r="44.1291" fill="white"/>
</g>
<path id="Vector" d="M70.3466 26.1743V64.0988H33.8202V59.3953H31.0105V57.025H33.8202V52.2659H31.0105V49.8957H33.8202V40.4145H31.0105V38.0442H33.8202V33.3037H31.0105V30.9334H33.8202V26.1743H70.3466ZM67.5369 28.5446H36.6299V61.7286H67.5369V28.5446ZM64.7272 35.6554H50.6786V33.2852H64.7272V35.6554ZM64.7272 40.396H50.6786V38.0257H64.7272V40.396ZM43.6543 56.9139C43.0835 56.9139 42.5494 56.8275 42.0518 56.6547C41.5543 56.4818 41.1153 56.2349 40.7348 55.914C40.3543 55.593 40.0616 55.2226 39.8567 54.8029C39.6519 54.3831 39.5421 53.9264 39.5275 53.4326C39.5275 52.9511 39.6299 52.5005 39.8348 52.0808C40.0397 51.661 40.3323 51.2968 40.7128 50.9882C41.0933 50.6796 41.5323 50.4265 42.0299 50.229C42.5274 50.0315 43.0689 49.9389 43.6543 49.9512C44.225 49.9512 44.7591 50.0438 45.2567 50.229C45.7542 50.4142 46.1859 50.6611 46.5518 50.9697C46.9176 51.2783 47.2176 51.6487 47.4518 52.0808C47.6859 52.5128 47.7957 52.9634 47.781 53.4326C47.781 53.914 47.6713 54.3646 47.4518 54.7844C47.2323 55.2041 46.9396 55.5745 46.5737 55.8954C46.2079 56.2164 45.7689 56.4633 45.2567 56.6362C44.7445 56.809 44.2104 56.9016 43.6543 56.9139ZM43.6543 52.1734C43.2299 52.1734 42.8787 52.2906 42.6006 52.5252C42.3226 52.7598 42.1762 53.0622 42.1616 53.4326C42.1616 53.7906 42.3006 54.0869 42.5787 54.3214C42.8567 54.556 43.2152 54.6794 43.6543 54.6918C44.0786 54.6918 44.4299 54.5745 44.7079 54.3399C44.986 54.1054 45.1323 53.8029 45.1469 53.4326C45.1469 53.0746 45.0079 52.7783 44.7299 52.5437C44.4518 52.3092 44.0933 52.1857 43.6543 52.1734ZM43.6543 40.3219C43.0835 40.3219 42.5494 40.2355 42.0518 40.0627C41.5543 39.8899 41.1153 39.643 40.7348 39.322C40.3543 39.001 40.0616 38.6306 39.8567 38.2109C39.6519 37.7912 39.5421 37.3344 39.5275 36.8406C39.5275 36.3591 39.6299 35.9085 39.8348 35.4888C40.0397 35.069 40.3323 34.7049 40.7128 34.3962C41.0933 34.0876 41.5323 33.8345 42.0299 33.637C42.5274 33.4395 43.0689 33.3469 43.6543 33.3592C44.225 33.3592 44.7591 33.4518 45.2567 33.637C45.7542 33.8222 46.1859 34.0691 46.5518 34.3777C46.9176 34.6863 47.2176 35.0567 47.4518 35.4888C47.6859 35.9209 47.7957 36.3715 47.781 36.8406C47.781 37.3221 47.6713 37.7727 47.4518 38.1924C47.2323 38.6121 46.9396 38.9825 46.5737 39.3035C46.2079 39.6244 45.7689 39.8713 45.2567 40.0442C44.7445 40.217 44.2104 40.3096 43.6543 40.3219ZM43.6543 35.5814C43.2299 35.5814 42.8787 35.6987 42.6006 35.9332C42.3226 36.1678 42.1762 36.4702 42.1616 36.8406C42.1616 37.1986 42.3006 37.4949 42.5787 37.7294C42.8567 37.964 43.2152 38.0875 43.6543 38.0998C44.0786 38.0998 44.4299 37.9825 44.7079 37.748C44.986 37.5134 45.1323 37.2109 45.1469 36.8406C45.1469 36.4826 45.0079 36.1863 44.7299 35.9517C44.4518 35.7172 44.0933 35.5937 43.6543 35.5814ZM64.7272 52.2474H50.6786V49.8771H64.7272V52.2474ZM64.7272 56.988H50.6786V54.6177H64.7272V56.988Z" fill="black"/>
</g>
<defs>
<filter id="filter0_d_1310_80" x="0.983147" y="0.274902" width="98.6416" height="98.6416" filterUnits="userSpaceOnUse" color-interpolation-filters="sRGB">
<feFlood flood-opacity="0" result="BackgroundImageFix"/>
<feColorMatrix in="SourceAlpha" type="matrix" values="0 0 0 0 0 0 0 0 0 0 0 0 0 0 0 0 0 0 127 0" result="hardAlpha"/>
<feOffset dy="5.19166"/>
<feGaussianBlur stdDeviation="2.59583"/>
<feComposite in2="hardAlpha" operator="out"/>
<feColorMatrix type="matrix" values="0 0 0 0 0 0 0 0 0 0 0 0 0 0 0 0 0 0 0.25 0"/>
<feBlend mode="normal" in2="BackgroundImageFix" result="effect1_dropShadow_1310_80"/>
<feBlend mode="normal" in="SourceGraphic" in2="effect1_dropShadow_1310_80" result="shape"/>
</filter>
</defs>
</svg>
