<svg width="44" height="44" viewBox="0 0 44 44" fill="none" xmlns="http://www.w3.org/2000/svg">
<path id="Vector" d="M22.0625 0C10.1905 0 0.53125 9.65925 0.53125 21.5312C0.53125 33.4033 10.1905 43.0625 22.0625 43.0625C33.9345 43.0625 43.5938 33.4033 43.5938 21.5312C43.5938 9.65925 33.9345 0 22.0625 0ZM22.0625 3.3125C32.1441 3.3125 40.2812 11.4497 40.2812 21.5312C40.2812 31.6128 32.1441 39.75 22.0625 39.75C11.9809 39.75 3.84375 31.6128 3.84375 21.5312C3.84375 11.4497 11.9809 3.3125 22.0625 3.3125ZM23.255 10.9213L20.87 13.25L27.495 19.875H10.4688V23.1875H27.495L20.87 29.8125L23.255 32.1412L32.6724 22.7221L33.8649 21.5296L32.6724 20.3371L23.2533 10.9197L23.255 10.9213Z" fill="#E0E0E0"/>
</svg>
