<svg width="44" height="44" viewBox="0 0 44 44" fill="none" xmlns="http://www.w3.org/2000/svg">
<path id="Vector" d="M22 43.0625C33.872 43.0625 43.5312 33.4033 43.5312 21.5312C43.5312 9.65925 33.872 0 22 0C10.128 0 0.46875 9.65925 0.46875 21.5312C0.46875 33.4033 10.128 43.0625 22 43.0625ZM22 39.75C11.9184 39.75 3.78125 31.6128 3.78125 21.5312C3.78125 11.4497 11.9184 3.3125 22 3.3125C32.0816 3.3125 40.2188 11.4497 40.2188 21.5312C40.2188 31.6128 32.0816 39.75 22 39.75ZM20.8075 32.1412L23.1925 29.8125L16.5675 23.1875H33.5938V19.875H16.5675L23.1925 13.25L20.8075 10.9213L11.3901 20.3404L10.1976 21.5329L11.3901 22.7254L20.8092 32.1428L20.8075 32.1412Z" fill="#E0E0E0"/>
</svg>
